# xmcd
#
# Track frame offsets:
#	150
#	12052
#	25545
#	37315
#	48540
#	62162
#	77462
#	91875
#	103247
#	114900
#	128520
#	143310
#	156445
#	169370
#	186262
#	195037
#
# Disc length: 2783 seconds
#
# Revision: 1
# Processed by: cddbd v1.5.2PL0 Copyright (c) Steve Scherf et al.
# Submitted via: audiograbber 1.83.01
#
DISCID=c30add10
DTITLE=Mahalia Jackson - Portait
DYEAR=1989
DGENRE=Gospel
TTITLE0=Nobody Knows The Trouble I've Seen
TTITLE1=Even Me
TTITLE2=Get Away Jordan
TTITLE3=The Last Mile On The Way
TTITLE4=Walkin' to Jerusalem
TTITLE5=City Called Heaven
TTITLE6=Go Tell It On The Mountain
TTITLE7=My Story
TTITLE8=I Believe
TTITLE9=The Lord Prayer
TTITLE10=Come To Jesus
TTITLE11=He's My Light
TTITLE12=Shall I Meet You Over Yonder
TTITLE13=Beautiful Tomorrow
TTITLE14=Hands Of God
TTITLE15=Jesus Is With Me
EXTD=
EXTT0=
EXTT1=
EXTT2=
EXTT3=
EXTT4=
EXTT5=
EXTT6=
EXTT7=
EXTT8=
EXTT9=
EXTT10=
EXTT11=
EXTT12=
EXTT13=
EXTT14=
EXTT15=
PLAYORDER=
